# xmcd CD database file
#
# Track frame offsets:
#	150
#	15077
#	34633
#	58194
#
# Disc length: 971 seconds
#
# Revision: 1
# Processed by: cddbd v1.5.2PL0 Copyright (c) Steve Scherf et al.
# Submitted via: CDex 1.70beta2
#
DISCID=2303c904
DTITLE=福原美穂 - ライジング・ハート - BEYOND
DYEAR=2001
DGENRE=Gospel
TTITLE0=ライジング・ハート
TTITLE1=BEYOND
TTITLE2=Surely Someday
TTITLE3=ライジング・ハート -Sing with Miho and Gospel version-
EXTD=YEAR: 2001
EXTT0=
EXTT1=
EXTT2=
EXTT3=
PLAYORDER=
